# xmcd
#
# Track frame offsets: 
#        150
#        40071
#        62491
#        89685
#        122067
#        152943
#        179638
#        193733
#        219852
#        238566
#
# Disc length: 3642 seconds
#
# Revision: 4
# Processed by: cddbd v1.5.2PL0 Copyright (c) Steve Scherf et al.
# Submitted via: ExactAudioCopyFreeDBPlugin 1.0
#
DISCID=8a0e380a
DTITLE=The War On Drugs - Lost In The Dream
DYEAR=2014
DGENRE=Indie-Rock
TTITLE0=Under The Pressure
TTITLE1=Red Eyes
TTITLE2=Suffering
TTITLE3=An Ocean In Between The Waves
TTITLE4=Disappearing
TTITLE5=Eyes To The Wind
TTITLE6=The Haunting Idle
TTITLE7=Burning
TTITLE8=Lost In The Dream
TTITLE9=In Reverse
EXTD=Release-Date: 14.03.2014\n\nMARO\n
EXTT0=
EXTT1=
EXTT2=
EXTT3=
EXTT4=
EXTT5=
EXTT6=
EXTT7=
EXTT8=
EXTT9=
PLAYORDER=
